<?xml version="1.0" encoding="UTF-8" standalone="no"?>
<!DOCTYPE svg PUBLIC "-//W3C//DTD SVG 1.1//EN" "http://www.w3.org/Graphics/SVG/1.1/DTD/svg11.dtd">
<svg width="100%" height="100%" viewBox="0 0 3748 2107" version="1.1" xmlns="http://www.w3.org/2000/svg" xmlns:xlink="http://www.w3.org/1999/xlink" xml:space="preserve" xmlns:serif="http://www.serif.com/" style="fill-rule:evenodd;clip-rule:evenodd;stroke-linejoin:round;stroke-miterlimit:2;">
    <g transform="matrix(1,0,0,1,374.587494,67.295893)">
        <g transform="matrix(0.866045,0,0,0.866045,-112.974299,-2405.666779)">
            <g transform="matrix(1,0,0,1,1211.894799,626.106038)">
                <g>
                    <g transform="matrix(1.984821,0,0,1.984821,-91.305485,507.47242)">
                        <path d="M1028.378,789.229L1074.382,835.233L998.604,911.011L922.826,835.233L968.83,789.229L991.832,812.231L968.83,835.233L998.604,865.007L1028.378,835.233L1005.376,812.231L1028.378,789.229Z" style="fill:rgb(223,223,223);"/>
                    </g>
                    <g transform="matrix(1.984821,0,0,1.984821,-2146.152001,507.47242)">
                        <path d="M1028.378,789.229L1074.382,835.233L998.604,911.011L922.826,835.233L968.83,789.229L991.832,812.231L968.83,835.233L998.604,865.007L1028.378,835.233L1005.376,812.231L1028.378,789.229Z" style="fill:rgb(223,223,223);"/>
                    </g>
                    <g transform="matrix(1.984821,0,0,1.984821,-1118.728743,507.47242)">
                        <path d="M1028.378,789.229L1074.382,835.233L998.604,911.011L922.826,835.233L968.83,789.229L991.832,812.231L968.83,835.233L998.604,865.007L1028.378,835.233L1005.376,812.231L1028.378,789.229Z" style="fill:rgb(223,223,223);"/>
                    </g>
                    <g transform="matrix(1.984821,0,0,1.984821,-3173.575258,507.47242)">
                        <path d="M1028.378,789.229L1074.382,835.233L998.604,911.011L922.826,835.233L968.83,789.229L991.832,812.231L968.83,835.233L998.604,865.007L1028.378,835.233L1005.376,812.231L1028.378,789.229Z" style="fill:rgb(223,223,223);"/>
                    </g>
                    <g transform="matrix(-1.984821,0,-0,-1.984821,4044.031469,3994.555306)">
                        <path d="M1028.378,789.229L1074.382,835.233L998.604,911.011L922.826,835.233L968.83,789.229L991.832,812.231L968.83,835.233L998.604,865.007L1028.378,835.233L1005.376,812.231L1028.378,789.229Z" style="fill:rgb(223,223,223);"/>
                    </g>
                    <g transform="matrix(-1.984821,0,-0,-1.984821,1989.184954,3994.555306)">
                        <path d="M1028.378,789.229L1074.382,835.233L998.604,911.011L922.826,835.233L968.83,789.229L991.832,812.231L968.83,835.233L998.604,865.007L1028.378,835.233L1005.376,812.231L1028.378,789.229Z" style="fill:rgb(223,223,223);"/>
                    </g>
                    <g transform="matrix(-1.984821,0,-0,-1.984821,3016.608212,3994.555306)">
                        <path d="M1028.378,789.229L1074.382,835.233L998.604,911.011L922.826,835.233L968.83,789.229L991.832,812.231L968.83,835.233L998.604,865.007L1028.378,835.233L1005.376,812.231L1028.378,789.229Z" style="fill:rgb(223,223,223);"/>
                    </g>
                    <g transform="matrix(-1.984821,0,-0,-1.984821,961.761696,3994.555306)">
                        <path d="M1028.378,789.229L1074.382,835.233L998.604,911.011L922.826,835.233L968.83,789.229L991.832,812.231L968.83,835.233L998.604,865.007L1028.378,835.233L1005.376,812.231L1028.378,789.229Z" style="fill:rgb(223,223,223);"/>
                    </g>
                    <g transform="matrix(-1.984821,0,-0,-1.984821,3701.55705,3994.555306)">
                        <path d="M1028.378,789.229L1074.382,835.233L998.604,911.011L922.826,835.233L968.83,789.229L991.832,812.231L968.83,835.233L998.604,865.007L1028.378,835.233L1005.376,812.231L1028.378,789.229Z" style="fill:rgb(223,223,223);"/>
                    </g>
                    <g transform="matrix(-1.984821,0,-0,-1.984821,1646.710535,3994.555306)">
                        <path d="M1028.378,789.229L1074.382,835.233L998.604,911.011L922.826,835.233L968.83,789.229L991.832,812.231L968.83,835.233L998.604,865.007L1028.378,835.233L1005.376,812.231L1028.378,789.229Z" style="fill:rgb(223,223,223);"/>
                    </g>
                    <g transform="matrix(-1.984821,0,-0,-1.984821,2674.133792,3994.555306)">
                        <path d="M1028.378,789.229L1074.382,835.233L998.604,911.011L922.826,835.233L968.83,789.229L991.832,812.231L968.83,835.233L998.604,865.007L1028.378,835.233L1005.376,812.231L1028.378,789.229Z" style="fill:rgb(223,223,223);"/>
                    </g>
                    <g transform="matrix(-1.984821,0,-0,-1.984821,619.287277,3994.555306)">
                        <path d="M1028.378,789.229L1074.382,835.233L998.604,911.011L922.826,835.233L968.83,789.229L991.832,812.231L968.83,835.233L998.604,865.007L1028.378,835.233L1005.376,812.231L1028.378,789.229Z" style="fill:rgb(223,223,223);"/>
                    </g>
                    <g transform="matrix(-1.984821,-0,0,-1.984821,4386.505889,3994.555306)">
                        <path d="M1028.378,789.229L1074.382,835.233L998.604,911.011L922.826,835.233L968.83,789.229L991.832,812.231L968.83,835.233L998.604,865.007L1028.378,835.233L1005.376,812.231L1028.378,789.229Z" style="fill:rgb(223,223,223);"/>
                    </g>
                    <g transform="matrix(-1.984821,-0,0,-1.984821,2331.659373,3994.555306)">
                        <path d="M1028.378,789.229L1074.382,835.233L998.604,911.011L922.826,835.233L968.83,789.229L991.832,812.231L968.83,835.233L998.604,865.007L1028.378,835.233L1005.376,812.231L1028.378,789.229Z" style="fill:rgb(223,223,223);"/>
                    </g>
                    <g transform="matrix(-1.984821,-0,0,-1.984821,3359.082631,3994.555306)">
                        <path d="M1028.378,789.229L1074.382,835.233L998.604,911.011L922.826,835.233L968.83,789.229L991.832,812.231L968.83,835.233L998.604,865.007L1028.378,835.233L1005.376,812.231L1028.378,789.229Z" style="fill:rgb(223,223,223);"/>
                    </g>
                    <g transform="matrix(-1.984821,-0,0,-1.984821,1304.236115,3994.555306)">
                        <path d="M1028.378,789.229L1074.382,835.233L998.604,911.011L922.826,835.233L968.83,789.229L991.832,812.231L968.83,835.233L998.604,865.007L1028.378,835.233L1005.376,812.231L1028.378,789.229Z" style="fill:rgb(223,223,223);"/>
                    </g>
                    <g transform="matrix(1.984821,0,0,1.984821,251.168934,507.47242)">
                        <path d="M1028.378,789.229L1074.382,835.233L998.604,911.011L922.826,835.233L968.83,789.229L991.832,812.231L968.83,835.233L998.604,865.007L1028.378,835.233L1005.376,812.231L1028.378,789.229Z" style="fill:rgb(223,223,223);"/>
                    </g>
                    <g transform="matrix(1.984821,0,0,1.984821,-1803.677581,507.47242)">
                        <path d="M1028.378,789.229L1074.382,835.233L998.604,911.011L922.826,835.233L968.83,789.229L991.832,812.231L968.83,835.233L998.604,865.007L1028.378,835.233L1005.376,812.231L1028.378,789.229Z" style="fill:rgb(223,223,223);"/>
                    </g>
                    <g transform="matrix(1.984821,0,0,1.984821,-776.254324,507.47242)">
                        <path d="M1028.378,789.229L1074.382,835.233L998.604,911.011L922.826,835.233L968.83,789.229L991.832,812.231L968.83,835.233L998.604,865.007L1028.378,835.233L1005.376,812.231L1028.378,789.229Z" style="fill:rgb(223,223,223);"/>
                    </g>
                    <g transform="matrix(1.984821,0,0,1.984821,-2831.100839,507.47242)">
                        <path d="M1028.378,789.229L1074.382,835.233L998.604,911.011L922.826,835.233L968.83,789.229L991.832,812.231L968.83,835.233L998.604,865.007L1028.378,835.233L1005.376,812.231L1028.378,789.229Z" style="fill:rgb(223,223,223);"/>
                    </g>
                    <g transform="matrix(1.984821,0,0,1.984821,593.643353,507.47242)">
                        <path d="M1028.378,789.229L1074.382,835.233L998.604,911.011L922.826,835.233L968.83,789.229L991.832,812.231L968.83,835.233L998.604,865.007L1028.378,835.233L1005.376,812.231L1028.378,789.229Z" style="fill:rgb(223,223,223);"/>
                    </g>
                    <g transform="matrix(1.984821,0,0,1.984821,-1461.203162,507.47242)">
                        <path d="M1028.378,789.229L1074.382,835.233L998.604,911.011L922.826,835.233L968.83,789.229L991.832,812.231L968.83,835.233L998.604,865.007L1028.378,835.233L1005.376,812.231L1028.378,789.229Z" style="fill:rgb(223,223,223);"/>
                    </g>
                    <g transform="matrix(1.984821,0,0,1.984821,-433.779904,507.47242)">
                        <path d="M1028.378,789.229L1074.382,835.233L998.604,911.011L922.826,835.233L968.83,789.229L991.832,812.231L968.83,835.233L998.604,865.007L1028.378,835.233L1005.376,812.231L1028.378,789.229Z" style="fill:rgb(223,223,223);"/>
                    </g>
                    <g transform="matrix(1.984821,0,0,1.984821,-2488.62642,507.47242)">
                        <path d="M1028.378,789.229L1074.382,835.233L998.604,911.011L922.826,835.233L968.83,789.229L991.832,812.231L968.83,835.233L998.604,865.007L1028.378,835.233L1005.376,812.231L1028.378,789.229Z" style="fill:rgb(223,223,223);"/>
                    </g>
                    <g transform="matrix(1.984821,0,0,1.984821,-92.110062,1101.69379)">
                        <path d="M1028.378,789.229L1074.382,835.233L998.604,911.011L922.826,835.233L968.83,789.229L991.832,812.231L968.83,835.233L998.604,865.007L1028.378,835.233L1005.376,812.231L1028.378,789.229Z" style="fill:rgb(223,223,223);"/>
                    </g>
                    <g transform="matrix(1.984821,0,0,1.984821,-2146.956577,1101.69379)">
                        <path d="M1028.378,789.229L1074.382,835.233L998.604,911.011L922.826,835.233L968.83,789.229L991.832,812.231L968.83,835.233L998.604,865.007L1028.378,835.233L1005.376,812.231L1028.378,789.229Z" style="fill:rgb(223,223,223);"/>
                    </g>
                    <g transform="matrix(1.984821,0,0,1.984821,-1119.53332,1101.69379)">
                        <path d="M1028.378,789.229L1074.382,835.233L998.604,911.011L922.826,835.233L968.83,789.229L991.832,812.231L968.83,835.233L998.604,865.007L1028.378,835.233L1005.376,812.231L1028.378,789.229Z" style="fill:rgb(223,223,223);"/>
                    </g>
                    <g transform="matrix(1.984821,0,0,1.984821,-3174.379835,1101.69379)">
                        <path d="M1028.378,789.229L1074.382,835.233L998.604,911.011L922.826,835.233L968.83,789.229L991.832,812.231L968.83,835.233L998.604,865.007L1028.378,835.233L1005.376,812.231L1028.378,789.229Z" style="fill:rgb(223,223,223);"/>
                    </g>
                    <g transform="matrix(-1.984821,0,-0,-1.984821,4043.226893,4588.776676)">
                        <path d="M1028.378,789.229L1074.382,835.233L998.604,911.011L922.826,835.233L968.83,789.229L991.832,812.231L968.83,835.233L998.604,865.007L1028.378,835.233L1005.376,812.231L1028.378,789.229Z" style="fill:rgb(223,223,223);"/>
                    </g>
                    <g transform="matrix(-1.984821,0,-0,-1.984821,1988.380377,4588.776676)">
                        <path d="M1028.378,789.229L1074.382,835.233L998.604,911.011L922.826,835.233L968.83,789.229L991.832,812.231L968.83,835.233L998.604,865.007L1028.378,835.233L1005.376,812.231L1028.378,789.229Z" style="fill:rgb(223,223,223);"/>
                    </g>
                    <g transform="matrix(-1.984821,0,-0,-1.984821,3015.803635,4588.776676)">
                        <path d="M1028.378,789.229L1074.382,835.233L998.604,911.011L922.826,835.233L968.83,789.229L991.832,812.231L968.83,835.233L998.604,865.007L1028.378,835.233L1005.376,812.231L1028.378,789.229Z" style="fill:rgb(223,223,223);"/>
                    </g>
                    <g transform="matrix(-1.984821,0,-0,-1.984821,960.957119,4588.776676)">
                        <path d="M1028.378,789.229L1074.382,835.233L998.604,911.011L922.826,835.233L968.83,789.229L991.832,812.231L968.83,835.233L998.604,865.007L1028.378,835.233L1005.376,812.231L1028.378,789.229Z" style="fill:rgb(223,223,223);"/>
                    </g>
                    <g transform="matrix(-1.984821,0,-0,-1.984821,3700.752473,4588.776676)">
                        <path d="M1028.378,789.229L1074.382,835.233L998.604,911.011L922.826,835.233L968.83,789.229L991.832,812.231L968.83,835.233L998.604,865.007L1028.378,835.233L1005.376,812.231L1028.378,789.229Z" style="fill:rgb(223,223,223);"/>
                    </g>
                    <g transform="matrix(-1.984821,0,-0,-1.984821,1645.905958,4588.776676)">
                        <path d="M1028.378,789.229L1074.382,835.233L998.604,911.011L922.826,835.233L968.83,789.229L991.832,812.231L968.83,835.233L998.604,865.007L1028.378,835.233L1005.376,812.231L1028.378,789.229Z" style="fill:rgb(223,223,223);"/>
                    </g>
                    <g transform="matrix(-1.984821,0,-0,-1.984821,2673.329216,4588.776676)">
                        <path d="M1028.378,789.229L1074.382,835.233L998.604,911.011L922.826,835.233L968.83,789.229L991.832,812.231L968.83,835.233L998.604,865.007L1028.378,835.233L1005.376,812.231L1028.378,789.229Z" style="fill:rgb(223,223,223);"/>
                    </g>
                    <g transform="matrix(-1.984821,0,-0,-1.984821,618.4827,4588.776676)">
                        <path d="M1028.378,789.229L1074.382,835.233L998.604,911.011L922.826,835.233L968.83,789.229L991.832,812.231L968.83,835.233L998.604,865.007L1028.378,835.233L1005.376,812.231L1028.378,789.229Z" style="fill:rgb(223,223,223);"/>
                    </g>
                    <g transform="matrix(-1.984821,-0,0,-1.984821,4385.701312,4588.776676)">
                        <path d="M1028.378,789.229L1074.382,835.233L998.604,911.011L922.826,835.233L968.83,789.229L991.832,812.231L968.83,835.233L998.604,865.007L1028.378,835.233L1005.376,812.231L1028.378,789.229Z" style="fill:rgb(223,223,223);"/>
                    </g>
                    <g transform="matrix(-1.984821,-0,0,-1.984821,2330.854796,4588.776676)">
                        <path d="M1028.378,789.229L1074.382,835.233L998.604,911.011L922.826,835.233L968.83,789.229L991.832,812.231L968.83,835.233L998.604,865.007L1028.378,835.233L1005.376,812.231L1028.378,789.229Z" style="fill:rgb(223,223,223);"/>
                    </g>
                    <g transform="matrix(-1.984821,-0,0,-1.984821,3358.278054,4588.776676)">
                        <path d="M1028.378,789.229L1074.382,835.233L998.604,911.011L922.826,835.233L968.83,789.229L991.832,812.231L968.83,835.233L998.604,865.007L1028.378,835.233L1005.376,812.231L1028.378,789.229Z" style="fill:rgb(223,223,223);"/>
                    </g>
                    <g transform="matrix(-1.984821,-0,0,-1.984821,1303.431539,4588.776676)">
                        <path d="M1028.378,789.229L1074.382,835.233L998.604,911.011L922.826,835.233L968.83,789.229L991.832,812.231L968.83,835.233L998.604,865.007L1028.378,835.233L1005.376,812.231L1028.378,789.229Z" style="fill:rgb(223,223,223);"/>
                    </g>
                    <g transform="matrix(1.984821,0,0,1.984821,250.364357,1101.69379)">
                        <path d="M1028.378,789.229L1074.382,835.233L998.604,911.011L922.826,835.233L968.83,789.229L991.832,812.231L968.83,835.233L998.604,865.007L1028.378,835.233L1005.376,812.231L1028.378,789.229Z" style="fill:rgb(223,223,223);"/>
                    </g>
                    <g transform="matrix(1.984821,0,0,1.984821,-1804.482158,1101.69379)">
                        <path d="M1028.378,789.229L1074.382,835.233L998.604,911.011L922.826,835.233L968.83,789.229L991.832,812.231L968.83,835.233L998.604,865.007L1028.378,835.233L1005.376,812.231L1028.378,789.229Z" style="fill:rgb(223,223,223);"/>
                    </g>
                    <g transform="matrix(1.984821,0,0,1.984821,-777.0589,1101.69379)">
                        <path d="M1028.378,789.229L1074.382,835.233L998.604,911.011L922.826,835.233L968.83,789.229L991.832,812.231L968.83,835.233L998.604,865.007L1028.378,835.233L1005.376,812.231L1028.378,789.229Z" style="fill:rgb(223,223,223);"/>
                    </g>
                    <g transform="matrix(1.984821,0,0,1.984821,-2831.905416,1101.69379)">
                        <path d="M1028.378,789.229L1074.382,835.233L998.604,911.011L922.826,835.233L968.83,789.229L991.832,812.231L968.83,835.233L998.604,865.007L1028.378,835.233L1005.376,812.231L1028.378,789.229Z" style="fill:rgb(223,223,223);"/>
                    </g>
                    <g transform="matrix(1.984821,0,0,1.984821,592.838777,1101.69379)">
                        <path d="M1028.378,789.229L1074.382,835.233L998.604,911.011L922.826,835.233L968.83,789.229L991.832,812.231L968.83,835.233L998.604,865.007L1028.378,835.233L1005.376,812.231L1028.378,789.229Z" style="fill:rgb(223,223,223);"/>
                    </g>
                    <g transform="matrix(1.984821,0,0,1.984821,-1462.007739,1101.69379)">
                        <path d="M1028.378,789.229L1074.382,835.233L998.604,911.011L922.826,835.233L968.83,789.229L991.832,812.231L968.83,835.233L998.604,865.007L1028.378,835.233L1005.376,812.231L1028.378,789.229Z" style="fill:rgb(223,223,223);"/>
                    </g>
                    <g transform="matrix(1.984821,0,0,1.984821,-434.584481,1101.69379)">
                        <path d="M1028.378,789.229L1074.382,835.233L998.604,911.011L922.826,835.233L968.83,789.229L991.832,812.231L968.83,835.233L998.604,865.007L1028.378,835.233L1005.376,812.231L1028.378,789.229Z" style="fill:rgb(223,223,223);"/>
                    </g>
                    <g transform="matrix(1.984821,0,0,1.984821,-2489.430997,1101.69379)">
                        <path d="M1028.378,789.229L1074.382,835.233L998.604,911.011L922.826,835.233L968.83,789.229L991.832,812.231L968.83,835.233L998.604,865.007L1028.378,835.233L1005.376,812.231L1028.378,789.229Z" style="fill:rgb(223,223,223);"/>
                    </g>
                    <g transform="matrix(1.984821,0,0,1.984821,-4.283878,804.356092)">
                        <path d="M1028.378,789.229L1074.382,835.233L998.604,911.011L922.826,835.233L968.83,789.229L991.832,812.231L968.83,835.233L998.604,865.007L1028.378,835.233L1005.376,812.231L1028.378,789.229Z" style="fill:rgb(223,223,223);"/>
                    </g>
                    <g transform="matrix(1.984821,0,0,1.984821,-2059.130394,804.356092)">
                        <path d="M1028.378,789.229L1074.382,835.233L998.604,911.011L922.826,835.233L968.83,789.229L991.832,812.231L968.83,835.233L998.604,865.007L1028.378,835.233L1005.376,812.231L1028.378,789.229Z" style="fill:rgb(223,223,223);"/>
                    </g>
                    <g transform="matrix(1.984821,0,0,1.984821,-1031.707136,804.356092)">
                        <path d="M1028.378,789.229L1074.382,835.233L998.604,911.011L922.826,835.233L968.83,789.229L991.832,812.231L968.83,835.233L998.604,865.007L1028.378,835.233L1005.376,812.231L1028.378,789.229Z" style="fill:rgb(223,223,223);"/>
                    </g>
                    <g transform="matrix(1.984821,0,0,1.984821,-3086.553652,804.356092)">
                        <path d="M1028.378,789.229L1074.382,835.233L998.604,911.011L922.826,835.233L968.83,789.229L991.832,812.231L968.83,835.233L998.604,865.007L1028.378,835.233L1005.376,812.231L1028.378,789.229Z" style="fill:rgb(223,223,223);"/>
                    </g>
                    <g transform="matrix(-1.984821,0,-0,-1.984821,4131.053076,4291.438977)">
                        <path d="M1028.378,789.229L1074.382,835.233L998.604,911.011L922.826,835.233L968.83,789.229L991.832,812.231L968.83,835.233L998.604,865.007L1028.378,835.233L1005.376,812.231L1028.378,789.229Z" style="fill:rgb(223,223,223);"/>
                    </g>
                    <g transform="matrix(-1.984821,0,-0,-1.984821,2076.206561,4291.438977)">
                        <path d="M1028.378,789.229L1074.382,835.233L998.604,911.011L922.826,835.233L968.83,789.229L991.832,812.231L968.83,835.233L998.604,865.007L1028.378,835.233L1005.376,812.231L1028.378,789.229Z" style="fill:rgb(223,223,223);"/>
                    </g>
                    <g transform="matrix(-1.984821,0,-0,-1.984821,3103.629818,4291.438977)">
                        <path d="M1028.378,789.229L1074.382,835.233L998.604,911.011L922.826,835.233L968.83,789.229L991.832,812.231L968.83,835.233L998.604,865.007L1028.378,835.233L1005.376,812.231L1028.378,789.229Z" style="fill:rgb(223,223,223);"/>
                    </g>
                    <g transform="matrix(-1.984821,0,-0,-1.984821,1048.783303,4291.438977)">
                        <path d="M1028.378,789.229L1074.382,835.233L998.604,911.011L922.826,835.233L968.83,789.229L991.832,812.231L968.83,835.233L998.604,865.007L1028.378,835.233L1005.376,812.231L1028.378,789.229Z" style="fill:rgb(223,223,223);"/>
                    </g>
                    <g transform="matrix(-1.984821,0,-0,-1.984821,3788.578657,4291.438977)">
                        <path d="M1028.378,789.229L1074.382,835.233L998.604,911.011L922.826,835.233L968.83,789.229L991.832,812.231L968.83,835.233L998.604,865.007L1028.378,835.233L1005.376,812.231L1028.378,789.229Z" style="fill:rgb(223,223,223);"/>
                    </g>
                    <g transform="matrix(-1.984821,0,-0,-1.984821,1733.732141,4291.438977)">
                        <path d="M1028.378,789.229L1074.382,835.233L998.604,911.011L922.826,835.233L968.83,789.229L991.832,812.231L968.83,835.233L998.604,865.007L1028.378,835.233L1005.376,812.231L1028.378,789.229Z" style="fill:rgb(223,223,223);"/>
                    </g>
                    <g transform="matrix(-1.984821,0,-0,-1.984821,2761.155399,4291.438977)">
                        <path d="M1028.378,789.229L1074.382,835.233L998.604,911.011L922.826,835.233L968.83,789.229L991.832,812.231L968.83,835.233L998.604,865.007L1028.378,835.233L1005.376,812.231L1028.378,789.229Z" style="fill:rgb(223,223,223);"/>
                    </g>
                    <g transform="matrix(-1.984821,0,-0,-1.984821,706.308884,4291.438977)">
                        <path d="M1028.378,789.229L1074.382,835.233L998.604,911.011L922.826,835.233L968.83,789.229L991.832,812.231L968.83,835.233L998.604,865.007L1028.378,835.233L1005.376,812.231L1028.378,789.229Z" style="fill:rgb(223,223,223);"/>
                    </g>
                    <g transform="matrix(-1.984821,-0,0,-1.984821,4473.527495,4291.438977)">
                        <path d="M1028.378,789.229L1074.382,835.233L998.604,911.011L922.826,835.233L968.83,789.229L991.832,812.231L968.83,835.233L998.604,865.007L1028.378,835.233L1005.376,812.231L1028.378,789.229Z" style="fill:rgb(223,223,223);"/>
                    </g>
                    <g transform="matrix(-1.984821,-0,0,-1.984821,2418.68098,4291.438977)">
                        <path d="M1028.378,789.229L1074.382,835.233L998.604,911.011L922.826,835.233L968.83,789.229L991.832,812.231L968.83,835.233L998.604,865.007L1028.378,835.233L1005.376,812.231L1028.378,789.229Z" style="fill:rgb(223,223,223);"/>
                    </g>
                    <g transform="matrix(-1.984821,-0,0,-1.984821,3446.104238,4291.438977)">
                        <path d="M1028.378,789.229L1074.382,835.233L998.604,911.011L922.826,835.233L968.83,789.229L991.832,812.231L968.83,835.233L998.604,865.007L1028.378,835.233L1005.376,812.231L1028.378,789.229Z" style="fill:rgb(223,223,223);"/>
                    </g>
                    <g transform="matrix(-1.984821,-0,0,-1.984821,1391.257722,4291.438977)">
                        <path d="M1028.378,789.229L1074.382,835.233L998.604,911.011L922.826,835.233L968.83,789.229L991.832,812.231L968.83,835.233L998.604,865.007L1028.378,835.233L1005.376,812.231L1028.378,789.229Z" style="fill:rgb(223,223,223);"/>
                    </g>
                    <g transform="matrix(1.984821,0,0,1.984821,338.190541,804.356092)">
                        <path d="M1028.378,789.229L1074.382,835.233L998.604,911.011L922.826,835.233L968.83,789.229L991.832,812.231L968.83,835.233L998.604,865.007L1028.378,835.233L1005.376,812.231L1028.378,789.229Z" style="fill:rgb(223,223,223);"/>
                    </g>
                    <g transform="matrix(1.984821,0,0,1.984821,-1716.655975,804.356092)">
                        <path d="M1028.378,789.229L1074.382,835.233L998.604,911.011L922.826,835.233L968.83,789.229L991.832,812.231L968.83,835.233L998.604,865.007L1028.378,835.233L1005.376,812.231L1028.378,789.229Z" style="fill:rgb(223,223,223);"/>
                    </g>
                    <g transform="matrix(1.984821,0,0,1.984821,-689.232717,804.356092)">
                        <path d="M1028.378,789.229L1074.382,835.233L998.604,911.011L922.826,835.233L968.83,789.229L991.832,812.231L968.83,835.233L998.604,865.007L1028.378,835.233L1005.376,812.231L1028.378,789.229Z" style="fill:rgb(223,223,223);"/>
                    </g>
                    <g transform="matrix(1.984821,0,0,1.984821,-2744.079232,804.356092)">
                        <path d="M1028.378,789.229L1074.382,835.233L998.604,911.011L922.826,835.233L968.83,789.229L991.832,812.231L968.83,835.233L998.604,865.007L1028.378,835.233L1005.376,812.231L1028.378,789.229Z" style="fill:rgb(223,223,223);"/>
                    </g>
                    <g transform="matrix(1.984821,0,0,1.984821,680.66496,804.356092)">
                        <path d="M1028.378,789.229L1074.382,835.233L998.604,911.011L922.826,835.233L968.83,789.229L991.832,812.231L968.83,835.233L998.604,865.007L1028.378,835.233L1005.376,812.231L1028.378,789.229Z" style="fill:rgb(223,223,223);"/>
                    </g>
                    <g transform="matrix(1.984821,0,0,1.984821,-1374.181555,804.356092)">
                        <path d="M1028.378,789.229L1074.382,835.233L998.604,911.011L922.826,835.233L968.83,789.229L991.832,812.231L968.83,835.233L998.604,865.007L1028.378,835.233L1005.376,812.231L1028.378,789.229Z" style="fill:rgb(223,223,223);"/>
                    </g>
                    <g transform="matrix(1.984821,0,0,1.984821,-346.758298,804.356092)">
                        <path d="M1028.378,789.229L1074.382,835.233L998.604,911.011L922.826,835.233L968.83,789.229L991.832,812.231L968.83,835.233L998.604,865.007L1028.378,835.233L1005.376,812.231L1028.378,789.229Z" style="fill:rgb(223,223,223);"/>
                    </g>
                    <g transform="matrix(1.984821,0,0,1.984821,-2401.604813,804.356092)">
                        <path d="M1028.378,789.229L1074.382,835.233L998.604,911.011L922.826,835.233L968.83,789.229L991.832,812.231L968.83,835.233L998.604,865.007L1028.378,835.233L1005.376,812.231L1028.378,789.229Z" style="fill:rgb(223,223,223);"/>
                    </g>
                    <g transform="matrix(1.984821,0,0,1.984821,-5.088455,1398.577461)">
                        <path d="M1028.378,789.229L1074.382,835.233L998.604,911.011L922.826,835.233L968.83,789.229L991.832,812.231L968.83,835.233L998.604,865.007L1028.378,835.233L1005.376,812.231L1028.378,789.229Z" style="fill:rgb(223,223,223);"/>
                    </g>
                    <g transform="matrix(1.984821,0,0,1.984821,-2059.934971,1398.577461)">
                        <path d="M1028.378,789.229L1074.382,835.233L998.604,911.011L922.826,835.233L968.83,789.229L991.832,812.231L968.83,835.233L998.604,865.007L1028.378,835.233L1005.376,812.231L1028.378,789.229Z" style="fill:rgb(223,223,223);"/>
                    </g>
                    <g transform="matrix(1.984821,0,0,1.984821,-1032.511713,1398.577461)">
                        <path d="M1028.378,789.229L1074.382,835.233L998.604,911.011L922.826,835.233L968.83,789.229L991.832,812.231L968.83,835.233L998.604,865.007L1028.378,835.233L1005.376,812.231L1028.378,789.229Z" style="fill:rgb(223,223,223);"/>
                    </g>
                    <g transform="matrix(1.984821,0,0,1.984821,-3087.358229,1398.577461)">
                        <path d="M1028.378,789.229L1074.382,835.233L998.604,911.011L922.826,835.233L968.83,789.229L991.832,812.231L968.83,835.233L998.604,865.007L1028.378,835.233L1005.376,812.231L1028.378,789.229Z" style="fill:rgb(223,223,223);"/>
                    </g>
                    <g transform="matrix(-1.984821,0,-0,-1.984821,4130.248499,4885.660347)">
                        <path d="M1028.378,789.229L1074.382,835.233L998.604,911.011L922.826,835.233L968.83,789.229L991.832,812.231L968.83,835.233L998.604,865.007L1028.378,835.233L1005.376,812.231L1028.378,789.229Z" style="fill:rgb(223,223,223);"/>
                    </g>
                    <g transform="matrix(-1.984821,0,-0,-1.984821,2075.401984,4885.660347)">
                        <path d="M1028.378,789.229L1074.382,835.233L998.604,911.011L922.826,835.233L968.83,789.229L991.832,812.231L968.83,835.233L998.604,865.007L1028.378,835.233L1005.376,812.231L1028.378,789.229Z" style="fill:rgb(223,223,223);"/>
                    </g>
                    <g transform="matrix(-1.984821,0,-0,-1.984821,3102.825241,4885.660347)">
                        <path d="M1028.378,789.229L1074.382,835.233L998.604,911.011L922.826,835.233L968.83,789.229L991.832,812.231L968.83,835.233L998.604,865.007L1028.378,835.233L1005.376,812.231L1028.378,789.229Z" style="fill:rgb(223,223,223);"/>
                    </g>
                    <g transform="matrix(-1.984821,0,-0,-1.984821,1047.978726,4885.660347)">
                        <path d="M1028.378,789.229L1074.382,835.233L998.604,911.011L922.826,835.233L968.83,789.229L991.832,812.231L968.83,835.233L998.604,865.007L1028.378,835.233L1005.376,812.231L1028.378,789.229Z" style="fill:rgb(223,223,223);"/>
                    </g>
                    <g transform="matrix(-1.984821,0,-0,-1.984821,3787.77408,4885.660347)">
                        <path d="M1028.378,789.229L1074.382,835.233L998.604,911.011L922.826,835.233L968.83,789.229L991.832,812.231L968.83,835.233L998.604,865.007L1028.378,835.233L1005.376,812.231L1028.378,789.229Z" style="fill:rgb(223,223,223);"/>
                    </g>
                    <g transform="matrix(-1.984821,0,-0,-1.984821,1732.927564,4885.660347)">
                        <path d="M1028.378,789.229L1074.382,835.233L998.604,911.011L922.826,835.233L968.83,789.229L991.832,812.231L968.83,835.233L998.604,865.007L1028.378,835.233L1005.376,812.231L1028.378,789.229Z" style="fill:rgb(223,223,223);"/>
                    </g>
                    <g transform="matrix(-1.984821,0,-0,-1.984821,2760.350822,4885.660347)">
                        <path d="M1028.378,789.229L1074.382,835.233L998.604,911.011L922.826,835.233L968.83,789.229L991.832,812.231L968.83,835.233L998.604,865.007L1028.378,835.233L1005.376,812.231L1028.378,789.229Z" style="fill:rgb(223,223,223);"/>
                    </g>
                    <g transform="matrix(-1.984821,0,-0,-1.984821,705.504307,4885.660347)">
                        <path d="M1028.378,789.229L1074.382,835.233L998.604,911.011L922.826,835.233L968.83,789.229L991.832,812.231L968.83,835.233L998.604,865.007L1028.378,835.233L1005.376,812.231L1028.378,789.229Z" style="fill:rgb(223,223,223);"/>
                    </g>
                    <g transform="matrix(-1.984821,-0,0,-1.984821,4472.722918,4885.660347)">
                        <path d="M1028.378,789.229L1074.382,835.233L998.604,911.011L922.826,835.233L968.83,789.229L991.832,812.231L968.83,835.233L998.604,865.007L1028.378,835.233L1005.376,812.231L1028.378,789.229Z" style="fill:rgb(223,223,223);"/>
                    </g>
                    <g transform="matrix(-1.984821,-0,0,-1.984821,2417.876403,4885.660347)">
                        <path d="M1028.378,789.229L1074.382,835.233L998.604,911.011L922.826,835.233L968.83,789.229L991.832,812.231L968.83,835.233L998.604,865.007L1028.378,835.233L1005.376,812.231L1028.378,789.229Z" style="fill:rgb(223,223,223);"/>
                    </g>
                    <g transform="matrix(-1.984821,-0,0,-1.984821,3445.299661,4885.660347)">
                        <path d="M1028.378,789.229L1074.382,835.233L998.604,911.011L922.826,835.233L968.83,789.229L991.832,812.231L968.83,835.233L998.604,865.007L1028.378,835.233L1005.376,812.231L1028.378,789.229Z" style="fill:rgb(223,223,223);"/>
                    </g>
                    <g transform="matrix(-1.984821,-0,0,-1.984821,1390.453145,4885.660347)">
                        <path d="M1028.378,789.229L1074.382,835.233L998.604,911.011L922.826,835.233L968.83,789.229L991.832,812.231L968.83,835.233L998.604,865.007L1028.378,835.233L1005.376,812.231L1028.378,789.229Z" style="fill:rgb(223,223,223);"/>
                    </g>
                    <g transform="matrix(1.984821,0,0,1.984821,337.385964,1398.577461)">
                        <path d="M1028.378,789.229L1074.382,835.233L998.604,911.011L922.826,835.233L968.83,789.229L991.832,812.231L968.83,835.233L998.604,865.007L1028.378,835.233L1005.376,812.231L1028.378,789.229Z" style="fill:rgb(223,223,223);"/>
                    </g>
                    <g transform="matrix(1.984821,0,0,1.984821,-1717.460552,1398.577461)">
                        <path d="M1028.378,789.229L1074.382,835.233L998.604,911.011L922.826,835.233L968.83,789.229L991.832,812.231L968.83,835.233L998.604,865.007L1028.378,835.233L1005.376,812.231L1028.378,789.229Z" style="fill:rgb(223,223,223);"/>
                    </g>
                    <g transform="matrix(1.984821,0,0,1.984821,-690.037294,1398.577461)">
                        <path d="M1028.378,789.229L1074.382,835.233L998.604,911.011L922.826,835.233L968.83,789.229L991.832,812.231L968.83,835.233L998.604,865.007L1028.378,835.233L1005.376,812.231L1028.378,789.229Z" style="fill:rgb(223,223,223);"/>
                    </g>
                    <g transform="matrix(1.984821,0,0,1.984821,-2744.883809,1398.577461)">
                        <path d="M1028.378,789.229L1074.382,835.233L998.604,911.011L922.826,835.233L968.83,789.229L991.832,812.231L968.83,835.233L998.604,865.007L1028.378,835.233L1005.376,812.231L1028.378,789.229Z" style="fill:rgb(223,223,223);"/>
                    </g>
                    <g transform="matrix(1.984821,0,0,1.984821,679.860383,1398.577461)">
                        <path d="M1028.378,789.229L1074.382,835.233L998.604,911.011L922.826,835.233L968.83,789.229L991.832,812.231L968.83,835.233L998.604,865.007L1028.378,835.233L1005.376,812.231L1028.378,789.229Z" style="fill:rgb(223,223,223);"/>
                    </g>
                    <g transform="matrix(1.984821,0,0,1.984821,-1374.986132,1398.577461)">
                        <path d="M1028.378,789.229L1074.382,835.233L998.604,911.011L922.826,835.233L968.83,789.229L991.832,812.231L968.83,835.233L998.604,865.007L1028.378,835.233L1005.376,812.231L1028.378,789.229Z" style="fill:rgb(223,223,223);"/>
                    </g>
                    <g transform="matrix(1.984821,0,0,1.984821,-347.562875,1398.577461)">
                        <path d="M1028.378,789.229L1074.382,835.233L998.604,911.011L922.826,835.233L968.83,789.229L991.832,812.231L968.83,835.233L998.604,865.007L1028.378,835.233L1005.376,812.231L1028.378,789.229Z" style="fill:rgb(223,223,223);"/>
                    </g>
                    <g transform="matrix(1.984821,0,0,1.984821,-2402.40939,1398.577461)">
                        <path d="M1028.378,789.229L1074.382,835.233L998.604,911.011L922.826,835.233L968.83,789.229L991.832,812.231L968.83,835.233L998.604,865.007L1028.378,835.233L1005.376,812.231L1028.378,789.229Z" style="fill:rgb(223,223,223);"/>
                    </g>
                </g>
                <g transform="matrix(1,0,0,1,0.228495,1186.843973)">
                    <g transform="matrix(1.984821,0,0,1.984821,-91.305485,507.47242)">
                        <path d="M1028.378,789.229L1074.382,835.233L998.604,911.011L922.826,835.233L968.83,789.229L991.832,812.231L968.83,835.233L998.604,865.007L1028.378,835.233L1005.376,812.231L1028.378,789.229Z" style="fill:rgb(223,223,223);"/>
                    </g>
                    <g transform="matrix(1.984821,0,0,1.984821,-2146.152001,507.47242)">
                        <path d="M1028.378,789.229L1074.382,835.233L998.604,911.011L922.826,835.233L968.83,789.229L991.832,812.231L968.83,835.233L998.604,865.007L1028.378,835.233L1005.376,812.231L1028.378,789.229Z" style="fill:rgb(223,223,223);"/>
                    </g>
                    <g transform="matrix(1.984821,0,0,1.984821,-1118.728743,507.47242)">
                        <path d="M1028.378,789.229L1074.382,835.233L998.604,911.011L922.826,835.233L968.83,789.229L991.832,812.231L968.83,835.233L998.604,865.007L1028.378,835.233L1005.376,812.231L1028.378,789.229Z" style="fill:rgb(223,223,223);"/>
                    </g>
                    <g transform="matrix(1.984821,0,0,1.984821,-3173.575258,507.47242)">
                        <path d="M1028.378,789.229L1074.382,835.233L998.604,911.011L922.826,835.233L968.83,789.229L991.832,812.231L968.83,835.233L998.604,865.007L1028.378,835.233L1005.376,812.231L1028.378,789.229Z" style="fill:rgb(223,223,223);"/>
                    </g>
                    <g transform="matrix(-1.984821,0,-0,-1.984821,4044.031469,3994.555306)">
                        <path d="M1028.378,789.229L1074.382,835.233L998.604,911.011L922.826,835.233L968.83,789.229L991.832,812.231L968.83,835.233L998.604,865.007L1028.378,835.233L1005.376,812.231L1028.378,789.229Z" style="fill:rgb(223,223,223);"/>
                    </g>
                    <g transform="matrix(-1.984821,0,-0,-1.984821,1989.184954,3994.555306)">
                        <path d="M1028.378,789.229L1074.382,835.233L998.604,911.011L922.826,835.233L968.83,789.229L991.832,812.231L968.83,835.233L998.604,865.007L1028.378,835.233L1005.376,812.231L1028.378,789.229Z" style="fill:rgb(223,223,223);"/>
                    </g>
                    <g transform="matrix(-1.984821,0,-0,-1.984821,3016.608212,3994.555306)">
                        <path d="M1028.378,789.229L1074.382,835.233L998.604,911.011L922.826,835.233L968.83,789.229L991.832,812.231L968.83,835.233L998.604,865.007L1028.378,835.233L1005.376,812.231L1028.378,789.229Z" style="fill:rgb(223,223,223);"/>
                    </g>
                    <g transform="matrix(-1.984821,0,-0,-1.984821,961.761696,3994.555306)">
                        <path d="M1028.378,789.229L1074.382,835.233L998.604,911.011L922.826,835.233L968.83,789.229L991.832,812.231L968.83,835.233L998.604,865.007L1028.378,835.233L1005.376,812.231L1028.378,789.229Z" style="fill:rgb(223,223,223);"/>
                    </g>
                    <g transform="matrix(-1.984821,0,-0,-1.984821,3701.55705,3994.555306)">
                        <path d="M1028.378,789.229L1074.382,835.233L998.604,911.011L922.826,835.233L968.83,789.229L991.832,812.231L968.83,835.233L998.604,865.007L1028.378,835.233L1005.376,812.231L1028.378,789.229Z" style="fill:rgb(223,223,223);"/>
                    </g>
                    <g transform="matrix(-1.984821,0,-0,-1.984821,1646.710535,3994.555306)">
                        <path d="M1028.378,789.229L1074.382,835.233L998.604,911.011L922.826,835.233L968.83,789.229L991.832,812.231L968.83,835.233L998.604,865.007L1028.378,835.233L1005.376,812.231L1028.378,789.229Z" style="fill:rgb(223,223,223);"/>
                    </g>
                    <g transform="matrix(-1.984821,0,-0,-1.984821,2674.133792,3994.555306)">
                        <path d="M1028.378,789.229L1074.382,835.233L998.604,911.011L922.826,835.233L968.83,789.229L991.832,812.231L968.83,835.233L998.604,865.007L1028.378,835.233L1005.376,812.231L1028.378,789.229Z" style="fill:rgb(223,223,223);"/>
                    </g>
                    <g transform="matrix(-1.984821,0,-0,-1.984821,619.287277,3994.555306)">
                        <path d="M1028.378,789.229L1074.382,835.233L998.604,911.011L922.826,835.233L968.83,789.229L991.832,812.231L968.83,835.233L998.604,865.007L1028.378,835.233L1005.376,812.231L1028.378,789.229Z" style="fill:rgb(223,223,223);"/>
                    </g>
                    <g transform="matrix(-1.984821,-0,0,-1.984821,4386.505889,3994.555306)">
                        <path d="M1028.378,789.229L1074.382,835.233L998.604,911.011L922.826,835.233L968.83,789.229L991.832,812.231L968.83,835.233L998.604,865.007L1028.378,835.233L1005.376,812.231L1028.378,789.229Z" style="fill:rgb(223,223,223);"/>
                    </g>
                    <g transform="matrix(-1.984821,-0,0,-1.984821,2331.659373,3994.555306)">
                        <path d="M1028.378,789.229L1074.382,835.233L998.604,911.011L922.826,835.233L968.83,789.229L991.832,812.231L968.83,835.233L998.604,865.007L1028.378,835.233L1005.376,812.231L1028.378,789.229Z" style="fill:rgb(223,223,223);"/>
                    </g>
                    <g transform="matrix(-1.984821,-0,0,-1.984821,3359.082631,3994.555306)">
                        <path d="M1028.378,789.229L1074.382,835.233L998.604,911.011L922.826,835.233L968.83,789.229L991.832,812.231L968.83,835.233L998.604,865.007L1028.378,835.233L1005.376,812.231L1028.378,789.229Z" style="fill:rgb(223,223,223);"/>
                    </g>
                    <g transform="matrix(-1.984821,-0,0,-1.984821,1304.236115,3994.555306)">
                        <path d="M1028.378,789.229L1074.382,835.233L998.604,911.011L922.826,835.233L968.83,789.229L991.832,812.231L968.83,835.233L998.604,865.007L1028.378,835.233L1005.376,812.231L1028.378,789.229Z" style="fill:rgb(223,223,223);"/>
                    </g>
                    <g transform="matrix(1.984821,0,0,1.984821,251.168934,507.47242)">
                        <path d="M1028.378,789.229L1074.382,835.233L998.604,911.011L922.826,835.233L968.83,789.229L991.832,812.231L968.83,835.233L998.604,865.007L1028.378,835.233L1005.376,812.231L1028.378,789.229Z" style="fill:rgb(223,223,223);"/>
                    </g>
                    <g transform="matrix(1.984821,0,0,1.984821,-1803.677581,507.47242)">
                        <path d="M1028.378,789.229L1074.382,835.233L998.604,911.011L922.826,835.233L968.83,789.229L991.832,812.231L968.83,835.233L998.604,865.007L1028.378,835.233L1005.376,812.231L1028.378,789.229Z" style="fill:rgb(223,223,223);"/>
                    </g>
                    <g transform="matrix(1.984821,0,0,1.984821,-776.254324,507.47242)">
                        <path d="M1028.378,789.229L1074.382,835.233L998.604,911.011L922.826,835.233L968.83,789.229L991.832,812.231L968.83,835.233L998.604,865.007L1028.378,835.233L1005.376,812.231L1028.378,789.229Z" style="fill:rgb(223,223,223);"/>
                    </g>
                    <g transform="matrix(1.984821,0,0,1.984821,-2831.100839,507.47242)">
                        <path d="M1028.378,789.229L1074.382,835.233L998.604,911.011L922.826,835.233L968.83,789.229L991.832,812.231L968.83,835.233L998.604,865.007L1028.378,835.233L1005.376,812.231L1028.378,789.229Z" style="fill:rgb(223,223,223);"/>
                    </g>
                    <g transform="matrix(1.984821,0,0,1.984821,593.643353,507.47242)">
                        <path d="M1028.378,789.229L1074.382,835.233L998.604,911.011L922.826,835.233L968.83,789.229L991.832,812.231L968.83,835.233L998.604,865.007L1028.378,835.233L1005.376,812.231L1028.378,789.229Z" style="fill:rgb(223,223,223);"/>
                    </g>
                    <g transform="matrix(1.984821,0,0,1.984821,-1461.203162,507.47242)">
                        <path d="M1028.378,789.229L1074.382,835.233L998.604,911.011L922.826,835.233L968.83,789.229L991.832,812.231L968.83,835.233L998.604,865.007L1028.378,835.233L1005.376,812.231L1028.378,789.229Z" style="fill:rgb(223,223,223);"/>
                    </g>
                    <g transform="matrix(1.984821,0,0,1.984821,-433.779904,507.47242)">
                        <path d="M1028.378,789.229L1074.382,835.233L998.604,911.011L922.826,835.233L968.83,789.229L991.832,812.231L968.83,835.233L998.604,865.007L1028.378,835.233L1005.376,812.231L1028.378,789.229Z" style="fill:rgb(223,223,223);"/>
                    </g>
                    <g transform="matrix(1.984821,0,0,1.984821,-2488.62642,507.47242)">
                        <path d="M1028.378,789.229L1074.382,835.233L998.604,911.011L922.826,835.233L968.83,789.229L991.832,812.231L968.83,835.233L998.604,865.007L1028.378,835.233L1005.376,812.231L1028.378,789.229Z" style="fill:rgb(223,223,223);"/>
                    </g>
                    <g transform="matrix(1.984821,0,0,1.984821,-92.110062,1101.69379)">
                        <path d="M1028.378,789.229L1074.382,835.233L998.604,911.011L922.826,835.233L968.83,789.229L991.832,812.231L968.83,835.233L998.604,865.007L1028.378,835.233L1005.376,812.231L1028.378,789.229Z" style="fill:rgb(223,223,223);"/>
                    </g>
                    <g transform="matrix(1.984821,0,0,1.984821,-2146.956577,1101.69379)">
                        <path d="M1028.378,789.229L1074.382,835.233L998.604,911.011L922.826,835.233L968.83,789.229L991.832,812.231L968.83,835.233L998.604,865.007L1028.378,835.233L1005.376,812.231L1028.378,789.229Z" style="fill:rgb(223,223,223);"/>
                    </g>
                    <g transform="matrix(1.984821,0,0,1.984821,-1119.53332,1101.69379)">
                        <path d="M1028.378,789.229L1074.382,835.233L998.604,911.011L922.826,835.233L968.83,789.229L991.832,812.231L968.83,835.233L998.604,865.007L1028.378,835.233L1005.376,812.231L1028.378,789.229Z" style="fill:rgb(223,223,223);"/>
                    </g>
                    <g transform="matrix(1.984821,0,0,1.984821,-3174.379835,1101.69379)">
                        <path d="M1028.378,789.229L1074.382,835.233L998.604,911.011L922.826,835.233L968.83,789.229L991.832,812.231L968.83,835.233L998.604,865.007L1028.378,835.233L1005.376,812.231L1028.378,789.229Z" style="fill:rgb(223,223,223);"/>
                    </g>
                    <g transform="matrix(-1.984821,0,-0,-1.984821,4043.226893,4588.776676)">
                        <path d="M1028.378,789.229L1074.382,835.233L998.604,911.011L922.826,835.233L968.83,789.229L991.832,812.231L968.83,835.233L998.604,865.007L1028.378,835.233L1005.376,812.231L1028.378,789.229Z" style="fill:rgb(223,223,223);"/>
                    </g>
                    <g transform="matrix(-1.984821,0,-0,-1.984821,1988.380377,4588.776676)">
                        <path d="M1028.378,789.229L1074.382,835.233L998.604,911.011L922.826,835.233L968.83,789.229L991.832,812.231L968.83,835.233L998.604,865.007L1028.378,835.233L1005.376,812.231L1028.378,789.229Z" style="fill:rgb(223,223,223);"/>
                    </g>
                    <g transform="matrix(-1.984821,0,-0,-1.984821,3015.803635,4588.776676)">
                        <path d="M1028.378,789.229L1074.382,835.233L998.604,911.011L922.826,835.233L968.83,789.229L991.832,812.231L968.83,835.233L998.604,865.007L1028.378,835.233L1005.376,812.231L1028.378,789.229Z" style="fill:rgb(223,223,223);"/>
                    </g>
                    <g transform="matrix(-1.984821,0,-0,-1.984821,960.957119,4588.776676)">
                        <path d="M1028.378,789.229L1074.382,835.233L998.604,911.011L922.826,835.233L968.83,789.229L991.832,812.231L968.83,835.233L998.604,865.007L1028.378,835.233L1005.376,812.231L1028.378,789.229Z" style="fill:rgb(223,223,223);"/>
                    </g>
                    <g transform="matrix(-1.984821,0,-0,-1.984821,3700.752473,4588.776676)">
                        <path d="M1028.378,789.229L1074.382,835.233L998.604,911.011L922.826,835.233L968.83,789.229L991.832,812.231L968.83,835.233L998.604,865.007L1028.378,835.233L1005.376,812.231L1028.378,789.229Z" style="fill:rgb(223,223,223);"/>
                    </g>
                    <g transform="matrix(-1.984821,0,-0,-1.984821,1645.905958,4588.776676)">
                        <path d="M1028.378,789.229L1074.382,835.233L998.604,911.011L922.826,835.233L968.83,789.229L991.832,812.231L968.83,835.233L998.604,865.007L1028.378,835.233L1005.376,812.231L1028.378,789.229Z" style="fill:rgb(223,223,223);"/>
                    </g>
                    <g transform="matrix(-1.984821,0,-0,-1.984821,2673.329216,4588.776676)">
                        <path d="M1028.378,789.229L1074.382,835.233L998.604,911.011L922.826,835.233L968.83,789.229L991.832,812.231L968.83,835.233L998.604,865.007L1028.378,835.233L1005.376,812.231L1028.378,789.229Z" style="fill:rgb(223,223,223);"/>
                    </g>
                    <g transform="matrix(-1.984821,0,-0,-1.984821,618.4827,4588.776676)">
                        <path d="M1028.378,789.229L1074.382,835.233L998.604,911.011L922.826,835.233L968.83,789.229L991.832,812.231L968.83,835.233L998.604,865.007L1028.378,835.233L1005.376,812.231L1028.378,789.229Z" style="fill:rgb(223,223,223);"/>
                    </g>
                    <g transform="matrix(-1.984821,-0,0,-1.984821,4385.701312,4588.776676)">
                        <path d="M1028.378,789.229L1074.382,835.233L998.604,911.011L922.826,835.233L968.83,789.229L991.832,812.231L968.83,835.233L998.604,865.007L1028.378,835.233L1005.376,812.231L1028.378,789.229Z" style="fill:rgb(223,223,223);"/>
                    </g>
                    <g transform="matrix(-1.984821,-0,0,-1.984821,2330.854796,4588.776676)">
                        <path d="M1028.378,789.229L1074.382,835.233L998.604,911.011L922.826,835.233L968.83,789.229L991.832,812.231L968.83,835.233L998.604,865.007L1028.378,835.233L1005.376,812.231L1028.378,789.229Z" style="fill:rgb(223,223,223);"/>
                    </g>
                    <g transform="matrix(-1.984821,-0,0,-1.984821,3358.278054,4588.776676)">
                        <path d="M1028.378,789.229L1074.382,835.233L998.604,911.011L922.826,835.233L968.83,789.229L991.832,812.231L968.83,835.233L998.604,865.007L1028.378,835.233L1005.376,812.231L1028.378,789.229Z" style="fill:rgb(223,223,223);"/>
                    </g>
                    <g transform="matrix(-1.984821,-0,0,-1.984821,1303.431539,4588.776676)">
                        <path d="M1028.378,789.229L1074.382,835.233L998.604,911.011L922.826,835.233L968.83,789.229L991.832,812.231L968.83,835.233L998.604,865.007L1028.378,835.233L1005.376,812.231L1028.378,789.229Z" style="fill:rgb(223,223,223);"/>
                    </g>
                    <g transform="matrix(1.984821,0,0,1.984821,250.364357,1101.69379)">
                        <path d="M1028.378,789.229L1074.382,835.233L998.604,911.011L922.826,835.233L968.83,789.229L991.832,812.231L968.83,835.233L998.604,865.007L1028.378,835.233L1005.376,812.231L1028.378,789.229Z" style="fill:rgb(223,223,223);"/>
                    </g>
                    <g transform="matrix(1.984821,0,0,1.984821,-1804.482158,1101.69379)">
                        <path d="M1028.378,789.229L1074.382,835.233L998.604,911.011L922.826,835.233L968.83,789.229L991.832,812.231L968.83,835.233L998.604,865.007L1028.378,835.233L1005.376,812.231L1028.378,789.229Z" style="fill:rgb(223,223,223);"/>
                    </g>
                    <g transform="matrix(1.984821,0,0,1.984821,-777.0589,1101.69379)">
                        <path d="M1028.378,789.229L1074.382,835.233L998.604,911.011L922.826,835.233L968.83,789.229L991.832,812.231L968.83,835.233L998.604,865.007L1028.378,835.233L1005.376,812.231L1028.378,789.229Z" style="fill:rgb(223,223,223);"/>
                    </g>
                    <g transform="matrix(1.984821,0,0,1.984821,-2831.905416,1101.69379)">
                        <path d="M1028.378,789.229L1074.382,835.233L998.604,911.011L922.826,835.233L968.83,789.229L991.832,812.231L968.83,835.233L998.604,865.007L1028.378,835.233L1005.376,812.231L1028.378,789.229Z" style="fill:rgb(223,223,223);"/>
                    </g>
                    <g transform="matrix(1.984821,0,0,1.984821,592.838777,1101.69379)">
                        <path d="M1028.378,789.229L1074.382,835.233L998.604,911.011L922.826,835.233L968.83,789.229L991.832,812.231L968.83,835.233L998.604,865.007L1028.378,835.233L1005.376,812.231L1028.378,789.229Z" style="fill:rgb(223,223,223);"/>
                    </g>
                    <g transform="matrix(1.984821,0,0,1.984821,-1462.007739,1101.69379)">
                        <path d="M1028.378,789.229L1074.382,835.233L998.604,911.011L922.826,835.233L968.83,789.229L991.832,812.231L968.83,835.233L998.604,865.007L1028.378,835.233L1005.376,812.231L1028.378,789.229Z" style="fill:rgb(223,223,223);"/>
                    </g>
                    <g transform="matrix(1.984821,0,0,1.984821,-434.584481,1101.69379)">
                        <path d="M1028.378,789.229L1074.382,835.233L998.604,911.011L922.826,835.233L968.83,789.229L991.832,812.231L968.83,835.233L998.604,865.007L1028.378,835.233L1005.376,812.231L1028.378,789.229Z" style="fill:rgb(223,223,223);"/>
                    </g>
                    <g transform="matrix(1.984821,0,0,1.984821,-2489.430997,1101.69379)">
                        <path d="M1028.378,789.229L1074.382,835.233L998.604,911.011L922.826,835.233L968.83,789.229L991.832,812.231L968.83,835.233L998.604,865.007L1028.378,835.233L1005.376,812.231L1028.378,789.229Z" style="fill:rgb(223,223,223);"/>
                    </g>
                    <g transform="matrix(1.984821,0,0,1.984821,-4.283878,804.356092)">
                        <path d="M1028.378,789.229L1074.382,835.233L998.604,911.011L922.826,835.233L968.83,789.229L991.832,812.231L968.83,835.233L998.604,865.007L1028.378,835.233L1005.376,812.231L1028.378,789.229Z" style="fill:rgb(223,223,223);"/>
                    </g>
                    <g transform="matrix(1.984821,0,0,1.984821,-2059.130394,804.356092)">
                        <path d="M1028.378,789.229L1074.382,835.233L998.604,911.011L922.826,835.233L968.83,789.229L991.832,812.231L968.83,835.233L998.604,865.007L1028.378,835.233L1005.376,812.231L1028.378,789.229Z" style="fill:rgb(223,223,223);"/>
                    </g>
                    <g transform="matrix(1.984821,0,0,1.984821,-1031.707136,804.356092)">
                        <path d="M1028.378,789.229L1074.382,835.233L998.604,911.011L922.826,835.233L968.83,789.229L991.832,812.231L968.83,835.233L998.604,865.007L1028.378,835.233L1005.376,812.231L1028.378,789.229Z" style="fill:rgb(223,223,223);"/>
                    </g>
                    <g transform="matrix(1.984821,0,0,1.984821,-3086.553652,804.356092)">
                        <path d="M1028.378,789.229L1074.382,835.233L998.604,911.011L922.826,835.233L968.83,789.229L991.832,812.231L968.83,835.233L998.604,865.007L1028.378,835.233L1005.376,812.231L1028.378,789.229Z" style="fill:rgb(223,223,223);"/>
                    </g>
                    <g transform="matrix(-1.984821,0,-0,-1.984821,4131.053076,4291.438977)">
                        <path d="M1028.378,789.229L1074.382,835.233L998.604,911.011L922.826,835.233L968.83,789.229L991.832,812.231L968.83,835.233L998.604,865.007L1028.378,835.233L1005.376,812.231L1028.378,789.229Z" style="fill:rgb(223,223,223);"/>
                    </g>
                    <g transform="matrix(-1.984821,0,-0,-1.984821,2076.206561,4291.438977)">
                        <path d="M1028.378,789.229L1074.382,835.233L998.604,911.011L922.826,835.233L968.83,789.229L991.832,812.231L968.83,835.233L998.604,865.007L1028.378,835.233L1005.376,812.231L1028.378,789.229Z" style="fill:rgb(223,223,223);"/>
                    </g>
                    <g transform="matrix(-1.984821,0,-0,-1.984821,3103.629818,4291.438977)">
                        <path d="M1028.378,789.229L1074.382,835.233L998.604,911.011L922.826,835.233L968.83,789.229L991.832,812.231L968.83,835.233L998.604,865.007L1028.378,835.233L1005.376,812.231L1028.378,789.229Z" style="fill:rgb(223,223,223);"/>
                    </g>
                    <g transform="matrix(-1.984821,0,-0,-1.984821,1048.783303,4291.438977)">
                        <path d="M1028.378,789.229L1074.382,835.233L998.604,911.011L922.826,835.233L968.83,789.229L991.832,812.231L968.83,835.233L998.604,865.007L1028.378,835.233L1005.376,812.231L1028.378,789.229Z" style="fill:rgb(223,223,223);"/>
                    </g>
                    <g transform="matrix(-1.984821,0,-0,-1.984821,3788.578657,4291.438977)">
                        <path d="M1028.378,789.229L1074.382,835.233L998.604,911.011L922.826,835.233L968.83,789.229L991.832,812.231L968.83,835.233L998.604,865.007L1028.378,835.233L1005.376,812.231L1028.378,789.229Z" style="fill:rgb(223,223,223);"/>
                    </g>
                    <g transform="matrix(-1.984821,0,-0,-1.984821,1733.732141,4291.438977)">
                        <path d="M1028.378,789.229L1074.382,835.233L998.604,911.011L922.826,835.233L968.83,789.229L991.832,812.231L968.83,835.233L998.604,865.007L1028.378,835.233L1005.376,812.231L1028.378,789.229Z" style="fill:rgb(223,223,223);"/>
                    </g>
                    <g transform="matrix(-1.984821,0,-0,-1.984821,2761.155399,4291.438977)">
                        <path d="M1028.378,789.229L1074.382,835.233L998.604,911.011L922.826,835.233L968.83,789.229L991.832,812.231L968.83,835.233L998.604,865.007L1028.378,835.233L1005.376,812.231L1028.378,789.229Z" style="fill:rgb(223,223,223);"/>
                    </g>
                    <g transform="matrix(-1.984821,0,-0,-1.984821,706.308884,4291.438977)">
                        <path d="M1028.378,789.229L1074.382,835.233L998.604,911.011L922.826,835.233L968.83,789.229L991.832,812.231L968.83,835.233L998.604,865.007L1028.378,835.233L1005.376,812.231L1028.378,789.229Z" style="fill:rgb(223,223,223);"/>
                    </g>
                    <g transform="matrix(-1.984821,-0,0,-1.984821,4473.527495,4291.438977)">
                        <path d="M1028.378,789.229L1074.382,835.233L998.604,911.011L922.826,835.233L968.83,789.229L991.832,812.231L968.83,835.233L998.604,865.007L1028.378,835.233L1005.376,812.231L1028.378,789.229Z" style="fill:rgb(223,223,223);"/>
                    </g>
                    <g transform="matrix(-1.984821,-0,0,-1.984821,2418.68098,4291.438977)">
                        <path d="M1028.378,789.229L1074.382,835.233L998.604,911.011L922.826,835.233L968.83,789.229L991.832,812.231L968.83,835.233L998.604,865.007L1028.378,835.233L1005.376,812.231L1028.378,789.229Z" style="fill:rgb(223,223,223);"/>
                    </g>
                    <g transform="matrix(-1.984821,-0,0,-1.984821,3446.104238,4291.438977)">
                        <path d="M1028.378,789.229L1074.382,835.233L998.604,911.011L922.826,835.233L968.83,789.229L991.832,812.231L968.83,835.233L998.604,865.007L1028.378,835.233L1005.376,812.231L1028.378,789.229Z" style="fill:rgb(223,223,223);"/>
                    </g>
                    <g transform="matrix(-1.984821,-0,0,-1.984821,1391.257722,4291.438977)">
                        <path d="M1028.378,789.229L1074.382,835.233L998.604,911.011L922.826,835.233L968.83,789.229L991.832,812.231L968.83,835.233L998.604,865.007L1028.378,835.233L1005.376,812.231L1028.378,789.229Z" style="fill:rgb(223,223,223);"/>
                    </g>
                    <g transform="matrix(1.984821,0,0,1.984821,338.190541,804.356092)">
                        <path d="M1028.378,789.229L1074.382,835.233L998.604,911.011L922.826,835.233L968.83,789.229L991.832,812.231L968.83,835.233L998.604,865.007L1028.378,835.233L1005.376,812.231L1028.378,789.229Z" style="fill:rgb(223,223,223);"/>
                    </g>
                    <g transform="matrix(1.984821,0,0,1.984821,-1716.655975,804.356092)">
                        <path d="M1028.378,789.229L1074.382,835.233L998.604,911.011L922.826,835.233L968.83,789.229L991.832,812.231L968.83,835.233L998.604,865.007L1028.378,835.233L1005.376,812.231L1028.378,789.229Z" style="fill:rgb(223,223,223);"/>
                    </g>
                    <g transform="matrix(1.984821,0,0,1.984821,-689.232717,804.356092)">
                        <path d="M1028.378,789.229L1074.382,835.233L998.604,911.011L922.826,835.233L968.83,789.229L991.832,812.231L968.83,835.233L998.604,865.007L1028.378,835.233L1005.376,812.231L1028.378,789.229Z" style="fill:rgb(223,223,223);"/>
                    </g>
                    <g transform="matrix(1.984821,0,0,1.984821,-2744.079232,804.356092)">
                        <path d="M1028.378,789.229L1074.382,835.233L998.604,911.011L922.826,835.233L968.83,789.229L991.832,812.231L968.83,835.233L998.604,865.007L1028.378,835.233L1005.376,812.231L1028.378,789.229Z" style="fill:rgb(223,223,223);"/>
                    </g>
                    <g transform="matrix(1.984821,0,0,1.984821,680.66496,804.356092)">
                        <path d="M1028.378,789.229L1074.382,835.233L998.604,911.011L922.826,835.233L968.83,789.229L991.832,812.231L968.83,835.233L998.604,865.007L1028.378,835.233L1005.376,812.231L1028.378,789.229Z" style="fill:rgb(223,223,223);"/>
                    </g>
                    <g transform="matrix(1.984821,0,0,1.984821,-1374.181555,804.356092)">
                        <path d="M1028.378,789.229L1074.382,835.233L998.604,911.011L922.826,835.233L968.83,789.229L991.832,812.231L968.83,835.233L998.604,865.007L1028.378,835.233L1005.376,812.231L1028.378,789.229Z" style="fill:rgb(223,223,223);"/>
                    </g>
                    <g transform="matrix(1.984821,0,0,1.984821,-346.758298,804.356092)">
                        <path d="M1028.378,789.229L1074.382,835.233L998.604,911.011L922.826,835.233L968.83,789.229L991.832,812.231L968.83,835.233L998.604,865.007L1028.378,835.233L1005.376,812.231L1028.378,789.229Z" style="fill:rgb(223,223,223);"/>
                    </g>
                    <g transform="matrix(1.984821,0,0,1.984821,-2401.604813,804.356092)">
                        <path d="M1028.378,789.229L1074.382,835.233L998.604,911.011L922.826,835.233L968.83,789.229L991.832,812.231L968.83,835.233L998.604,865.007L1028.378,835.233L1005.376,812.231L1028.378,789.229Z" style="fill:rgb(223,223,223);"/>
                    </g>
                    <g transform="matrix(1.984821,0,0,1.984821,-5.088455,1398.577461)">
                        <path d="M1028.378,789.229L1074.382,835.233L998.604,911.011L922.826,835.233L968.83,789.229L991.832,812.231L968.83,835.233L998.604,865.007L1028.378,835.233L1005.376,812.231L1028.378,789.229Z" style="fill:rgb(223,223,223);"/>
                    </g>
                    <g transform="matrix(1.984821,0,0,1.984821,-2059.934971,1398.577461)">
                        <path d="M1028.378,789.229L1074.382,835.233L998.604,911.011L922.826,835.233L968.83,789.229L991.832,812.231L968.83,835.233L998.604,865.007L1028.378,835.233L1005.376,812.231L1028.378,789.229Z" style="fill:rgb(223,223,223);"/>
                    </g>
                    <g transform="matrix(1.984821,0,0,1.984821,-1032.511713,1398.577461)">
                        <path d="M1028.378,789.229L1074.382,835.233L998.604,911.011L922.826,835.233L968.83,789.229L991.832,812.231L968.83,835.233L998.604,865.007L1028.378,835.233L1005.376,812.231L1028.378,789.229Z" style="fill:rgb(223,223,223);"/>
                    </g>
                    <g transform="matrix(1.984821,0,0,1.984821,-3087.358229,1398.577461)">
                        <path d="M1028.378,789.229L1074.382,835.233L998.604,911.011L922.826,835.233L968.83,789.229L991.832,812.231L968.83,835.233L998.604,865.007L1028.378,835.233L1005.376,812.231L1028.378,789.229Z" style="fill:rgb(223,223,223);"/>
                    </g>
                    <g transform="matrix(-1.984821,0,-0,-1.984821,4130.248499,4885.660347)">
                        <path d="M1028.378,789.229L1074.382,835.233L998.604,911.011L922.826,835.233L968.83,789.229L991.832,812.231L968.83,835.233L998.604,865.007L1028.378,835.233L1005.376,812.231L1028.378,789.229Z" style="fill:rgb(223,223,223);"/>
                    </g>
                    <g transform="matrix(-1.984821,0,-0,-1.984821,2075.401984,4885.660347)">
                        <path d="M1028.378,789.229L1074.382,835.233L998.604,911.011L922.826,835.233L968.83,789.229L991.832,812.231L968.83,835.233L998.604,865.007L1028.378,835.233L1005.376,812.231L1028.378,789.229Z" style="fill:rgb(223,223,223);"/>
                    </g>
                    <g transform="matrix(-1.984821,0,-0,-1.984821,3102.825241,4885.660347)">
                        <path d="M1028.378,789.229L1074.382,835.233L998.604,911.011L922.826,835.233L968.83,789.229L991.832,812.231L968.83,835.233L998.604,865.007L1028.378,835.233L1005.376,812.231L1028.378,789.229Z" style="fill:rgb(223,223,223);"/>
                    </g>
                    <g transform="matrix(-1.984821,0,-0,-1.984821,1047.978726,4885.660347)">
                        <path d="M1028.378,789.229L1074.382,835.233L998.604,911.011L922.826,835.233L968.83,789.229L991.832,812.231L968.83,835.233L998.604,865.007L1028.378,835.233L1005.376,812.231L1028.378,789.229Z" style="fill:rgb(223,223,223);"/>
                    </g>
                    <g transform="matrix(-1.984821,0,-0,-1.984821,3787.77408,4885.660347)">
                        <path d="M1028.378,789.229L1074.382,835.233L998.604,911.011L922.826,835.233L968.83,789.229L991.832,812.231L968.83,835.233L998.604,865.007L1028.378,835.233L1005.376,812.231L1028.378,789.229Z" style="fill:rgb(223,223,223);"/>
                    </g>
                    <g transform="matrix(-1.984821,0,-0,-1.984821,1732.927564,4885.660347)">
                        <path d="M1028.378,789.229L1074.382,835.233L998.604,911.011L922.826,835.233L968.83,789.229L991.832,812.231L968.83,835.233L998.604,865.007L1028.378,835.233L1005.376,812.231L1028.378,789.229Z" style="fill:rgb(223,223,223);"/>
                    </g>
                    <g transform="matrix(-1.984821,0,-0,-1.984821,2760.350822,4885.660347)">
                        <path d="M1028.378,789.229L1074.382,835.233L998.604,911.011L922.826,835.233L968.83,789.229L991.832,812.231L968.83,835.233L998.604,865.007L1028.378,835.233L1005.376,812.231L1028.378,789.229Z" style="fill:rgb(223,223,223);"/>
                    </g>
                    <g transform="matrix(-1.984821,0,-0,-1.984821,705.504307,4885.660347)">
                        <path d="M1028.378,789.229L1074.382,835.233L998.604,911.011L922.826,835.233L968.83,789.229L991.832,812.231L968.83,835.233L998.604,865.007L1028.378,835.233L1005.376,812.231L1028.378,789.229Z" style="fill:rgb(223,223,223);"/>
                    </g>
                    <g transform="matrix(-1.984821,-0,0,-1.984821,4472.722918,4885.660347)">
                        <path d="M1028.378,789.229L1074.382,835.233L998.604,911.011L922.826,835.233L968.83,789.229L991.832,812.231L968.83,835.233L998.604,865.007L1028.378,835.233L1005.376,812.231L1028.378,789.229Z" style="fill:rgb(223,223,223);"/>
                    </g>
                    <g transform="matrix(-1.984821,-0,0,-1.984821,2417.876403,4885.660347)">
                        <path d="M1028.378,789.229L1074.382,835.233L998.604,911.011L922.826,835.233L968.83,789.229L991.832,812.231L968.83,835.233L998.604,865.007L1028.378,835.233L1005.376,812.231L1028.378,789.229Z" style="fill:rgb(223,223,223);"/>
                    </g>
                    <g transform="matrix(-1.984821,-0,0,-1.984821,3445.299661,4885.660347)">
                        <path d="M1028.378,789.229L1074.382,835.233L998.604,911.011L922.826,835.233L968.83,789.229L991.832,812.231L968.83,835.233L998.604,865.007L1028.378,835.233L1005.376,812.231L1028.378,789.229Z" style="fill:rgb(223,223,223);"/>
                    </g>
                    <g transform="matrix(-1.984821,-0,0,-1.984821,1390.453145,4885.660347)">
                        <path d="M1028.378,789.229L1074.382,835.233L998.604,911.011L922.826,835.233L968.83,789.229L991.832,812.231L968.83,835.233L998.604,865.007L1028.378,835.233L1005.376,812.231L1028.378,789.229Z" style="fill:rgb(223,223,223);"/>
                    </g>
                    <g transform="matrix(1.984821,0,0,1.984821,337.385964,1398.577461)">
                        <path d="M1028.378,789.229L1074.382,835.233L998.604,911.011L922.826,835.233L968.83,789.229L991.832,812.231L968.83,835.233L998.604,865.007L1028.378,835.233L1005.376,812.231L1028.378,789.229Z" style="fill:rgb(223,223,223);"/>
                    </g>
                    <g transform="matrix(1.984821,0,0,1.984821,-1717.460552,1398.577461)">
                        <path d="M1028.378,789.229L1074.382,835.233L998.604,911.011L922.826,835.233L968.83,789.229L991.832,812.231L968.83,835.233L998.604,865.007L1028.378,835.233L1005.376,812.231L1028.378,789.229Z" style="fill:rgb(223,223,223);"/>
                    </g>
                    <g transform="matrix(1.984821,0,0,1.984821,-690.037294,1398.577461)">
                        <path d="M1028.378,789.229L1074.382,835.233L998.604,911.011L922.826,835.233L968.83,789.229L991.832,812.231L968.83,835.233L998.604,865.007L1028.378,835.233L1005.376,812.231L1028.378,789.229Z" style="fill:rgb(223,223,223);"/>
                    </g>
                    <g transform="matrix(1.984821,0,0,1.984821,-2744.883809,1398.577461)">
                        <path d="M1028.378,789.229L1074.382,835.233L998.604,911.011L922.826,835.233L968.83,789.229L991.832,812.231L968.83,835.233L998.604,865.007L1028.378,835.233L1005.376,812.231L1028.378,789.229Z" style="fill:rgb(223,223,223);"/>
                    </g>
                    <g transform="matrix(1.984821,0,0,1.984821,679.860383,1398.577461)">
                        <path d="M1028.378,789.229L1074.382,835.233L998.604,911.011L922.826,835.233L968.83,789.229L991.832,812.231L968.83,835.233L998.604,865.007L1028.378,835.233L1005.376,812.231L1028.378,789.229Z" style="fill:rgb(223,223,223);"/>
                    </g>
                    <g transform="matrix(1.984821,0,0,1.984821,-1374.986132,1398.577461)">
                        <path d="M1028.378,789.229L1074.382,835.233L998.604,911.011L922.826,835.233L968.83,789.229L991.832,812.231L968.83,835.233L998.604,865.007L1028.378,835.233L1005.376,812.231L1028.378,789.229Z" style="fill:rgb(223,223,223);"/>
                    </g>
                    <g transform="matrix(1.984821,0,0,1.984821,-347.562875,1398.577461)">
                        <path d="M1028.378,789.229L1074.382,835.233L998.604,911.011L922.826,835.233L968.83,789.229L991.832,812.231L968.83,835.233L998.604,865.007L1028.378,835.233L1005.376,812.231L1028.378,789.229Z" style="fill:rgb(223,223,223);"/>
                    </g>
                    <g transform="matrix(1.984821,0,0,1.984821,-2402.40939,1398.577461)">
                        <path d="M1028.378,789.229L1074.382,835.233L998.604,911.011L922.826,835.233L968.83,789.229L991.832,812.231L968.83,835.233L998.604,865.007L1028.378,835.233L1005.376,812.231L1028.378,789.229Z" style="fill:rgb(223,223,223);"/>
                    </g>
                </g>
            </g>
        </g>
    </g>
</svg>
